<?xml version="1.0" standalone="no"?>
<!DOCTYPE svg PUBLIC "-//W3C//DTD SVG 20010904//EN"
 "http://www.w3.org/TR/2001/REC-SVG-20010904/DTD/svg10.dtd">
<svg version="1.0" xmlns="http://www.w3.org/2000/svg"
 width="512.000000pt" height="512.000000pt" viewBox="0 0 512.000000 512.000000"
 preserveAspectRatio="xMidYMid meet">

<g transform="translate(0.000000,512.000000) scale(0.100000,-0.100000)"
fill="#000000" stroke="none">
<path d="M2397 4900 c-762 -68 -1414 -585 -1656 -1315 -214 -645 -80 -1380
361 -1974 89 -120 1301 -1341 1363 -1373 51 -27 129 -28 183 -4 29 13 208 189
648 640 334 341 641 662 683 711 245 294 415 673 476 1064 144 923 -364 1809
-1224 2136 -250 94 -568 138 -834 115z m496 -239 c607 -132 1084 -553 1280
-1131 205 -603 56 -1329 -376 -1830 -66 -76 -1222 -1263 -1235 -1268 -4 -1
-280 271 -613 605 -633 636 -694 703 -814 907 -157 268 -250 566 -275 889 -69
872 521 1658 1370 1826 154 30 148 29 365 26 157 -3 221 -8 298 -24z"/>
<path d="M2405 3825 c-141 -27 -263 -83 -376 -173 -345 -273 -422 -764 -180
-1135 75 -114 199 -224 322 -286 142 -71 233 -93 384 -94 234 0 422 74 587
231 191 183 277 395 265 656 -6 145 -30 234 -93 356 -170 331 -545 514 -909
445z m322 -221 c321 -84 527 -420 458 -749 -49 -233 -245 -435 -475 -489 -36
-9 -103 -16 -150 -16 -179 0 -318 58 -446 185 -93 92 -154 201 -179 320 -75
358 168 709 530 764 71 11 188 4 262 -15z"/>
</g>
</svg>
