<?xml version="1.0" encoding="iso-8859-1"?>
<!-- Uploaded to: SVG Repo, www.svgrepo.com, Generator: SVG Repo Mixer Tools -->
<svg fill="#000000" height="800px" width="800px" version="1.1" id="Layer_1" xmlns="http://www.w3.org/2000/svg" xmlns:xlink="http://www.w3.org/1999/xlink" 
	 viewBox="0 0 481.9 481.9" xml:space="preserve">
<g transform="translate(0 -540.36)">
	<g>
		<g>
			<path d="M297.15,802.76c73,0,132.3-59.1,132.3-131.6c0-35.1-13.8-68-38.7-92.6c-24.9-24.7-58.1-38.2-93.6-38.2
				c-49.5,0-94.7,27.1-117.5,69.8c-8.3-2.5-17.7-3.7-28-3.7c-26.4,0-51.3,10.1-70,28.4c-18.8,18.4-29.2,43.2-29.2,69.7
				c0,54.2,44.6,98.2,99.3,98.2L297.15,802.76L297.15,802.76z M72.45,704.56c0-43.1,35.6-78.2,79.3-78.2c11.2,0,21.2,1.9,28.9,5.4
				c2.5,1.1,5.2,1.1,7.7,0.2c2.5-1,4.5-2.9,5.6-5.3c17.9-40.3,58.5-66.4,103.3-66.4c61.9,0,112.3,49.7,112.3,110.8
				c0,61.6-50.4,111.7-112.3,111.7h-145.5C108.05,782.76,72.45,747.66,72.45,704.56z"/>
			<path d="M364.35,891.46v44.1c0,5.5,4.5,10,10,10c5.6,0,10-4.5,10-10v-44.1c0-5.5-4.5-10-10-10S364.35,885.96,364.35,891.46z"/>
			<path d="M374.35,958.26c-17.2,0-32.3,14.9-32.3,32c0,17.3,14.8,32,32.3,32c18.1,0,32.3-14.1,32.3-32
				C406.65,972.96,391.85,958.26,374.35,958.26z M374.35,1002.16c-5.8,0-12.3-4.9-12.3-12c0-5.9,6.2-12,12.3-12
				c7.3,0,12.3,6.4,12.3,12C386.65,996.96,381.35,1002.16,374.35,1002.16z"/>
			<path d="M186.75,891.46v44.1c0,5.5,4.5,10,10,10s10-4.5,10-10v-44.1c0-5.5-4.5-10-10-10S186.75,885.96,186.75,891.46z"/>
			<path d="M196.75,958.26c-17.5,0-32.3,14.6-32.3,32c0,17.9,14.2,32,32.3,32c17.5,0,32.3-14.7,32.3-32
				C229.05,973.26,213.95,958.26,196.75,958.26z M196.75,1002.16c-7,0-12.3-5.1-12.3-12c0-5.7,5-12,12.3-12c6.1,0,12.3,6.1,12.3,12
				C209.05,997.26,202.55,1002.16,196.75,1002.16z"/>
			<path d="M275.15,858.86v43.2c0,5.5,4.5,10,10,10s10-4.5,10-10v-43.2c0-5.5-4.5-10-10-10S275.15,853.36,275.15,858.86z"/>
			<path d="M285.15,925.66c-17.5,0-32.3,14.7-32.3,32s14.8,32,32.3,32c18.1,0,32.3-14.1,32.3-32S303.25,925.66,285.15,925.66z
				 M285.15,969.56c-5.8,0-12.3-4.9-12.3-12s6.5-12,12.3-12c7,0,12.3,5.2,12.3,12S292.15,969.56,285.15,969.56z"/>
			<path d="M117.55,902.06v-43.2c0-5.5-4.5-10-10-10c-5.5,0-10,4.5-10,10v43.2c0,5.5,4.5,10,10,10
				C113.05,912.06,117.55,907.56,117.55,902.06z"/>
			<path d="M107.55,925.66c-18.1,0-32.3,14.1-32.3,32s14.2,32,32.3,32c17.5,0,32.3-14.7,32.3-32S125.05,925.66,107.55,925.66z
				 M107.55,969.56c-7,0-12.3-5.2-12.3-12s5.3-12,12.3-12c5.8,0,12.3,4.9,12.3,12S113.35,969.56,107.55,969.56z"/>
		</g>
	</g>
</g>
</svg>