<?xml version="1.0" standalone="no"?>
<!DOCTYPE svg PUBLIC "-//W3C//DTD SVG 20010904//EN"
 "http://www.w3.org/TR/2001/REC-SVG-20010904/DTD/svg10.dtd">
<svg version="1.0" xmlns="http://www.w3.org/2000/svg"
 width="512.000000pt" height="512.000000pt" viewBox="0 0 512.000000 512.000000"
 preserveAspectRatio="xMidYMid meet">

<g transform="translate(0.000000,512.000000) scale(0.100000,-0.100000)"
fill="#000000" stroke="none">
<path d="M1300 4144 c-111 -23 -224 -86 -311 -173 -251 -252 -252 -650 0 -901
253 -252 651 -253 901 -1 253 254 253 648 0 902 -155 156 -374 220 -590 173z
m271 -333 c69 -33 112 -74 150 -143 31 -58 34 -70 34 -148 0 -78 -3 -90 -34
-148 -38 -70 -70 -100 -145 -140 -43 -22 -64 -26 -136 -26 -78 -1 -90 2 -148
33 -69 37 -109 80 -144 151 -32 66 -31 196 2 265 42 86 123 152 215 176 49 13
158 2 206 -20z"/>
<path d="M3050 4145 c-256 -53 -460 -210 -570 -439 -80 -166 -75 -97 -75
-1146 0 -1049 -5 -980 75 -1146 101 -211 296 -370 525 -431 99 -26 608 -27
700 -1 106 29 172 58 248 108 212 138 344 359 364 611 7 93 -6 137 -52 178
-39 34 -88 46 -142 36 -49 -9 -110 -69 -116 -115 -3 -19 -10 -68 -15 -108 -26
-189 -168 -347 -357 -397 -84 -21 -466 -21 -550 0 -178 47 -321 197 -355 374
-6 34 -10 363 -10 891 0 528 4 857 10 891 25 131 124 266 239 328 100 53 152
61 391 61 162 0 231 -4 275 -15 189 -50 331 -208 357 -397 5 -40 12 -89 15
-108 6 -46 67 -106 116 -115 54 -10 103 2 142 36 45 40 59 86 52 174 -27 357
-285 655 -629 726 -77 16 -133 19 -333 18 -158 -1 -262 -5 -305 -14z"/>
</g>
</svg>
