<?xml version="1.0" standalone="no"?>
<!DOCTYPE svg PUBLIC "-//W3C//DTD SVG 20010904//EN"
 "http://www.w3.org/TR/2001/REC-SVG-20010904/DTD/svg10.dtd">
<svg version="1.0" xmlns="http://www.w3.org/2000/svg"
 width="512.000000pt" height="512.000000pt" viewBox="0 0 512.000000 512.000000"
 preserveAspectRatio="xMidYMid meet">

<g transform="translate(0.000000,512.000000) scale(0.100000,-0.100000)"
fill="#000000" stroke="none">
<path d="M1300 4144 c-111 -23 -224 -86 -311 -173 -251 -252 -252 -650 0 -901
253 -252 651 -253 901 -1 253 254 253 648 0 902 -155 156 -374 220 -590 173z
m271 -333 c69 -33 112 -74 150 -143 31 -58 34 -70 34 -148 0 -78 -3 -90 -34
-148 -38 -70 -70 -100 -145 -140 -43 -22 -64 -26 -136 -26 -78 -1 -90 2 -148
33 -69 37 -109 80 -144 151 -32 66 -31 196 2 265 42 86 123 152 215 176 49 13
158 2 206 -20z"/>
<path d="M3050 4145 c-256 -53 -460 -210 -570 -439 -81 -168 -75 -62 -75
-1428 0 -1213 0 -1217 21 -1244 39 -53 71 -69 134 -69 63 0 95 16 134 69 21
27 21 39 24 696 l2 669 429 3 c416 3 430 4 457 24 53 39 69 71 69 134 0 63
-16 95 -69 134 -27 20 -41 21 -457 24 l-429 3 0 338 c0 188 5 362 10 392 31
162 144 293 313 362 51 21 68 22 614 27 548 5 562 6 589 26 52 39 69 71 69
133 0 47 -5 64 -27 93 -53 70 -35 68 -635 67 -406 -1 -554 -4 -603 -14z"/>
</g>
</svg>
