<?xml version="1.0" standalone="no"?>
<!DOCTYPE svg PUBLIC "-//W3C//DTD SVG 20010904//EN"
 "http://www.w3.org/TR/2001/REC-SVG-20010904/DTD/svg10.dtd">
<svg version="1.0" xmlns="http://www.w3.org/2000/svg"
 width="512.000000pt" height="512.000000pt" viewBox="0 0 512.000000 512.000000"
 preserveAspectRatio="xMidYMid meet">

<g transform="translate(0.000000,512.000000) scale(0.100000,-0.100000)"
fill="#000000" stroke="none">
<path d="M273 4894 c-40 -20 -67 -74 -58 -117 6 -25 88 -113 368 -394 l361
-363 -23 -37 c-53 -89 -152 -306 -184 -408 -208 -649 -73 -1374 365 -1964 89
-120 1301 -1341 1363 -1373 54 -28 136 -28 190 0 25 13 224 208 534 526 271
278 496 506 500 506 3 0 242 -236 531 -524 413 -412 532 -525 557 -531 71 -15
143 56 128 128 -6 26 -448 473 -2258 2285 -1239 1238 -2266 2259 -2284 2267
-39 19 -50 19 -90 -1z m2049 -2251 l1217 -1217 -392 -399 c-216 -220 -436
-445 -489 -501 l-97 -101 -571 570 c-314 314 -608 613 -652 665 -283 335 -445
734 -478 1180 -18 236 15 489 92 709 30 87 136 311 147 311 3 0 554 -548 1223
-1217z"/>
<path d="M2386 4899 c-229 -21 -489 -97 -701 -207 -113 -58 -132 -72 -148
-105 -33 -65 5 -134 80 -144 32 -4 57 5 165 60 139 70 291 124 451 159 89 19
132 22 327 22 243 0 324 -11 513 -70 510 -162 926 -571 1100 -1084 151 -443
114 -958 -99 -1402 -38 -80 -41 -105 -19 -148 32 -62 117 -76 163 -27 47 50
150 309 196 496 179 713 -20 1432 -531 1922 -327 313 -723 491 -1178 529 -136
11 -179 11 -319 -1z"/>
</g>
</svg>
